<svg id="Слой_1" data-name="Слой 1" xmlns="http://www.w3.org/2000/svg" xmlns:xlink="http://www.w3.org/1999/xlink" viewBox="0 0 208.91 96.9"><defs><style>.cls-1{fill:url(#Безымянный_градиент_2);}.cls-2{fill:url(#Безымянный_градиент_2-2);}.cls-3{fill:url(#Безымянный_градиент_2-3);}.cls-4{fill:url(#Безымянный_градиент_2-4);}.cls-5{fill:url(#Безымянный_градиент_2-5);}.cls-6{fill:url(#Безымянный_градиент_2-6);}.cls-7{fill:url(#Безымянный_градиент_2-7);}.cls-8{fill:url(#Безымянный_градиент_2-8);}.cls-9{fill:url(#Безымянный_градиент_2-9);}.cls-10{fill:url(#Безымянный_градиент_2-10);}.cls-11{fill:url(#Безымянный_градиент_2-11);}.cls-12{fill:url(#Безымянный_градиент_2-12);}.cls-13{fill:url(#Безымянный_градиент_2-13);}.cls-14{fill:url(#Безымянный_градиент_2-14);}.cls-15{fill:url(#Безымянный_градиент_2-15);}.cls-16{fill:url(#Безымянный_градиент_2-16);}.cls-17{fill:url(#Безымянный_градиент_2-17);}.cls-18{fill:url(#Безымянный_градиент_2-18);}.cls-19{fill:url(#Безымянный_градиент_2-19);}.cls-20{fill:url(#Безымянный_градиент_2-20);}.cls-21{fill:url(#Безымянный_градиент_2-21);}.cls-22{fill:url(#Безымянный_градиент_2-22);}.cls-23{fill:url(#Безымянный_градиент_2-23);}.cls-24{fill:url(#Безымянный_градиент_2-24);}.cls-25{fill:url(#Безымянный_градиент_2-25);}.cls-26{fill:url(#Безымянный_градиент_2-26);}.cls-27{fill:url(#Безымянный_градиент_2-27);}</style><linearGradient id="Безымянный_градиент_2" x1="50.96" y1="78.8" x2="230.21" y2="80.96" gradientUnits="userSpaceOnUse"><stop offset="0" stop-color="#a17b5d"/><stop offset="0.08" stop-color="#d3a780"/><stop offset="0.15" stop-color="#dcb791"/><stop offset="0.27" stop-color="#e7cba7"/><stop offset="0.38" stop-color="#eed7b4"/><stop offset="0.49" stop-color="#f0dbb8"/><stop offset="0.59" stop-color="#eed7b4"/><stop offset="0.69" stop-color="#e7cba7"/><stop offset="0.79" stop-color="#ddb893"/><stop offset="0.86" stop-color="#d3a780"/></linearGradient><linearGradient id="Безымянный_градиент_2-2" x1="50.96" y1="78.71" x2="230.22" y2="80.88" xlink:href="#Безымянный_градиент_2"/><linearGradient id="Безымянный_градиент_2-3" x1="50.96" y1="78.7" x2="230.22" y2="80.87" xlink:href="#Безымянный_градиент_2"/><linearGradient id="Безымянный_градиент_2-4" x1="50.95" y1="79.39" x2="230.21" y2="81.55" xlink:href="#Безымянный_градиент_2"/><linearGradient id="Безымянный_градиент_2-5" x1="50.96" y1="78.48" x2="230.22" y2="80.64" xlink:href="#Безымянный_градиент_2"/><linearGradient id="Безымянный_градиент_2-6" x1="50.96" y1="78.39" x2="230.22" y2="80.56" xlink:href="#Безымянный_градиент_2"/><linearGradient id="Безымянный_градиент_2-7" x1="50.95" y1="79.08" x2="230.21" y2="81.24" xlink:href="#Безымянный_градиент_2"/><linearGradient id="Безымянный_градиент_2-8" x1="50.97" y1="78.17" x2="230.22" y2="80.33" xlink:href="#Безымянный_градиент_2"/><linearGradient id="Безымянный_градиент_2-9" x1="50.97" y1="78.09" x2="230.22" y2="80.25" xlink:href="#Безымянный_градиент_2"/><linearGradient id="Безымянный_градиент_2-10" x1="50.97" y1="78.02" x2="230.22" y2="80.19" xlink:href="#Безымянный_градиент_2"/><linearGradient id="Безымянный_градиент_2-11" x1="50.98" y1="77" x2="230.24" y2="79.17" xlink:href="#Безымянный_градиент_2"/><linearGradient id="Безымянный_градиент_2-12" x1="50.97" y1="77.82" x2="230.23" y2="79.98" xlink:href="#Безымянный_градиент_2"/><linearGradient id="Безымянный_градиент_2-13" x1="50.97" y1="77.75" x2="230.23" y2="79.91" xlink:href="#Безымянный_градиент_2"/><linearGradient id="Безымянный_градиент_2-14" x1="50.97" y1="77.6" x2="230.23" y2="79.77" xlink:href="#Безымянный_градиент_2"/><linearGradient id="Безымянный_градиент_2-15" x1="50.97" y1="77.49" x2="230.23" y2="79.66" xlink:href="#Безымянный_градиент_2"/><linearGradient id="Безымянный_градиент_2-16" x1="50.97" y1="77.4" x2="230.23" y2="79.56" xlink:href="#Безымянный_градиент_2"/><linearGradient id="Безымянный_градиент_2-17" x1="50.98" y1="77.31" x2="230.23" y2="79.47" xlink:href="#Безымянный_градиент_2"/><linearGradient id="Безымянный_градиент_2-18" x1="50.98" y1="77.2" x2="230.23" y2="79.37" xlink:href="#Безымянный_градиент_2"/><linearGradient id="Безымянный_градиент_2-19" x1="50.98" y1="77.1" x2="230.23" y2="79.27" xlink:href="#Безымянный_градиент_2"/><linearGradient id="Безымянный_градиент_2-20" x1="50.98" y1="77.01" x2="230.24" y2="79.17" xlink:href="#Безымянный_градиент_2"/><linearGradient id="Безымянный_градиент_2-21" x1="50.98" y1="76.96" x2="230.24" y2="79.13" xlink:href="#Безымянный_градиент_2"/><linearGradient id="Безымянный_градиент_2-22" x1="48.13" y1="48.08" x2="82.7" y2="48.08" xlink:href="#Безымянный_градиент_2"/><linearGradient id="Безымянный_градиент_2-23" x1="90.58" y1="53.38" x2="120.88" y2="53.38" xlink:href="#Безымянный_градиент_2"/><linearGradient id="Безымянный_градиент_2-24" x1="130.87" y1="48.08" x2="172.97" y2="48.08" xlink:href="#Безымянный_градиент_2"/><linearGradient id="Безымянный_градиент_2-25" x1="182.9" y1="53" x2="208.09" y2="53" xlink:href="#Безымянный_градиент_2"/><linearGradient id="Безымянный_градиент_2-26" x1="0" y1="48.45" x2="47.64" y2="48.45" xlink:href="#Безымянный_градиент_2"/><linearGradient id="Безымянный_градиент_2-27" x1="49.15" y1="43.08" x2="56.2" y2="43.17" xlink:href="#Безымянный_градиент_2"/></defs><path class="cls-1" d="M48.88,78.86a3.63,3.63,0,0,1,.53-2,3.25,3.25,0,0,1,1.3-1.23,3.7,3.7,0,0,1,1.68-.39,3.85,3.85,0,0,1,1.88.46v.82a3.05,3.05,0,0,0-1.75-.5,3,3,0,0,0-2,.72,2.64,2.64,0,0,0-.85,2.09,2.61,2.61,0,0,0,.44,1.51,2.45,2.45,0,0,0,1.06.92,3.32,3.32,0,0,0,1.36.29,3,3,0,0,0,1.77-.5v.82a4.06,4.06,0,0,1-1.94.46,3.46,3.46,0,0,1-1.26-.23A3.52,3.52,0,0,1,50,81.47a3,3,0,0,1-.81-1.1A3.58,3.58,0,0,1,48.88,78.86Z"/><path class="cls-2" d="M55.34,75.38h5.49v.79H58.48v6.07h-.8V76.17H55.34Z"/><path class="cls-3" d="M65.05,80.69c-.52,1.11-1.21,1.67-2.1,1.67a2.77,2.77,0,0,1-.9-.14v-.77a2.38,2.38,0,0,0,.76.13,1.54,1.54,0,0,0,.75-.18,1.65,1.65,0,0,0,.59-.72l.12-.26-2.76-5h.89l2.3,4.27,1.92-4.27h.86Z"/><path class="cls-4" d="M68.35,83.86h-.77v-2.4h.81a13.17,13.17,0,0,0,1.09-6.08h4.1v6.08h.84v2.4h-.76V82.24H68.35Zm2-7.69a14.81,14.81,0,0,1-1,5.29h3.49V76.17Z"/><path class="cls-5" d="M81.64,82.24h-.81V76.76l-4,5.48h-.74V75.38h.8v5.48l4-5.48h.75Z"/><path class="cls-6" d="M84.23,82.24h-1l2-2.61A2.37,2.37,0,0,1,84,78.92a2,2,0,0,1-.46-1.36,2.06,2.06,0,0,1,.37-1.23,2.1,2.1,0,0,1,.94-.73,3.64,3.64,0,0,1,1.27-.22h2.52v6.86h-.8v-2.5H86.12Zm.62-5.72a1.37,1.37,0,0,0,0,2.08A2.1,2.1,0,0,0,86.1,79h1.74V76.17H86.1A2,2,0,0,0,84.85,76.52Z"/><path class="cls-7" d="M93.79,83.86H93v-2.4h.81a13.32,13.32,0,0,0,1.08-6.08H99v6.08h.84v2.4H99.1V82.24H93.79Zm1.95-7.69a14.59,14.59,0,0,1-1,5.29h3.49V76.17Z"/><path class="cls-8" d="M107.08,82.24h-.8V76.76l-4,5.48h-.74V75.38h.8v5.48l4-5.48h.75Z"/><path class="cls-9" d="M113.81,80.39a1.79,1.79,0,0,1-.24.93,1.63,1.63,0,0,1-.63.62,3.48,3.48,0,0,1-.83.32,4.11,4.11,0,0,1-.94.1,6.37,6.37,0,0,1-2.38-.43v-.82a5.23,5.23,0,0,0,2.32.47c1.25,0,1.88-.42,1.88-1.27s-.6-1.23-1.8-1.23h-1.36v-.79h1.28a2,2,0,0,0,1.17-.29.92.92,0,0,0,.44-.82c0-.76-.58-1.13-1.74-1.13a4.57,4.57,0,0,0-2.07.48v-.82a5.06,5.06,0,0,1,2.14-.44,3.11,3.11,0,0,1,1.79.46,1.53,1.53,0,0,1,.69,1.35,1.57,1.57,0,0,1-.31,1,1.59,1.59,0,0,1-.79.58,1.74,1.74,0,0,1,1,.55A1.61,1.61,0,0,1,113.81,80.39Z"/><path class="cls-10" d="M115.5,82.24h-.86l2.9-6.86h.89l2.9,6.86h-.86l-.69-1.65h-3.59Zm2.38-5.75-1.38,3.33h3l-1.38-3.33s0-.12-.11-.26Z"/><path class="cls-11" d="M127.51,77.34v-.58l-4,5.48h-.74V75.38h.8v5.48l4-5.48h.74v6.86h-.8Zm-.64-3.8a2.34,2.34,0,0,1-1.34.43,2.31,2.31,0,0,1-1.33-.43v.76a2.15,2.15,0,0,0,1.33.42,2.18,2.18,0,0,0,1.34-.42Z"/><path class="cls-12" d="M135.3,75.38h.8v6.86h-.8v-3h-4v3h-.8V75.38h.8v3h4Z"/><path class="cls-13" d="M138.39,82.24h-.87l2.91-6.86h.89l2.9,6.86h-.86l-.69-1.65h-3.59Zm2.38-5.75-1.38,3.33h3L141,76.49s0-.12-.1-.26Z"/><path class="cls-14" d="M154.05,82.24h-.8V76.76l-4,5.48h-.74V75.38h.8v5.48l4-5.48h.74Z"/><path class="cls-15" d="M159.13,75.38h2.28c1.89,0,2.83.74,2.83,2.22s-.94,2.21-2.83,2.21h-1.48v2.43h-.8Zm4.3,2.22a1.52,1.52,0,0,0-.15-.71,1,1,0,0,0-.43-.44,2.18,2.18,0,0,0-.62-.22,4.42,4.42,0,0,0-.78-.06h-1.52V79h1.52a2.81,2.81,0,0,0,1.45-.31A1.19,1.19,0,0,0,163.43,77.6Z"/><path class="cls-16" d="M165.91,75.38h4.5v.79h-3.7v2.22h3.41v.79h-3.41v2.28h3.76v.78h-4.56Z"/><path class="cls-17" d="M178.48,75.38h.68v6.86h-.8v-5.3L176,80.63h-.5l-2.39-3.69v5.3h-.8V75.38H173l2.75,4.24Z"/><path class="cls-18" d="M181.17,80.12a3.88,3.88,0,0,1-.23-1.31,3.83,3.83,0,0,1,.23-1.3,3.6,3.6,0,0,1,.64-1.13,3,3,0,0,1,1.1-.81,4,4,0,0,1,3.05,0,2.91,2.91,0,0,1,1.09.81,3.62,3.62,0,0,1,.65,1.13,3.82,3.82,0,0,1,.22,1.3,3.88,3.88,0,0,1-.22,1.31,3.74,3.74,0,0,1-.65,1.13,2.91,2.91,0,0,1-1.09.81,4,4,0,0,1-3.05,0,3,3,0,0,1-1.1-.81A3.71,3.71,0,0,1,181.17,80.12Zm5.77-.28a2.93,2.93,0,0,0,.17-1,3,3,0,0,0-.17-1,2.9,2.9,0,0,0-.48-.88,2.26,2.26,0,0,0-.85-.62,2.92,2.92,0,0,0-1.18-.23,3,3,0,0,0-1.18.23,2.15,2.15,0,0,0-.84.62,2.72,2.72,0,0,0-.49.88,3.27,3.27,0,0,0-.17,1,3.18,3.18,0,0,0,.17,1,2.77,2.77,0,0,0,.49.89,2.25,2.25,0,0,0,.84.62,3,3,0,0,0,1.18.23,2.92,2.92,0,0,0,1.18-.23,2.37,2.37,0,0,0,.85-.62A3,3,0,0,0,186.94,79.84Z"/><path class="cls-19" d="M194.46,75.38h.8v6.86h-.8v-3h-4v3h-.8V75.38h.8v3h4Z"/><path class="cls-20" d="M196.75,75.38h5.49v.79h-2.35v6.07h-.8V76.17h-2.34Z"/><path class="cls-21" d="M203.09,82.24h-.87l2.91-6.86H206l2.9,6.86h-.86l-.68-1.65h-3.6Zm2.37-5.75-1.37,3.33h3l-1.38-3.33-.1-.26Z"/><path class="cls-22" d="M67.32,28.26H63.49L48.13,67.9h3.06l14.2-36.62L79.62,67.9H82.7Z"/><path class="cls-23" d="M105.6,38.09A14.49,14.49,0,0,0,95,42.55,14.75,14.75,0,0,0,90.58,53.3,15.11,15.11,0,0,0,95,64.2a14,14,0,0,0,10.52,4.48,14.26,14.26,0,0,0,6.41-1.45,16.08,16.08,0,0,0,5.28-4.31l.92-1.11V67.9h2.77V38.82C118.45,38.69,107.76,38.09,105.6,38.09Zm12.77,15.46a12.89,12.89,0,0,1-1.6,6.41,12,12,0,0,1-4.59,4.55,12.47,12.47,0,0,1-6.3,1.68,11.9,11.9,0,0,1-6.14-1.7,12.18,12.18,0,0,1-4.59-4.72,12.65,12.65,0,0,1,0-12.67,12.06,12.06,0,0,1,10.77-6.33c3.33,0,11.63,1,12,1l.47,0Z"/><path class="cls-24" d="M167.88,36.58c-3.42-2.83-8.11-4.44-13.93-4.84l-.49,0V28.26H150.4v3.46l-.48,0c-5.76.33-10.43,2-13.89,4.84a14,14,0,0,0-5.16,11.25A13.88,13.88,0,0,0,136,59c3.41,2.83,8.11,4.49,13.95,4.86l.48,0v4h3.06v-4l.49,0c5.76-.33,10.41-2,13.89-4.84A14,14,0,0,0,173,47.79,13.93,13.93,0,0,0,167.88,36.58ZM150.4,61.18l-.54,0c-4.92-.32-8.8-1.64-11.57-3.94A11.53,11.53,0,0,1,134,47.83c0-4.42,1.55-7.73,4.63-9.85a21.88,21.88,0,0,1,11.19-3.52l.54,0Zm14.82-3.58A22.06,22.06,0,0,1,154,61.16l-.55,0V34.44l.55,0c4.88.32,8.78,1.64,11.59,3.92a11.72,11.72,0,0,1,4.23,9.41C169.83,52.19,168.28,55.48,165.22,57.6Z"/><path class="cls-25" d="M205.26,38.09V48.58a41.83,41.83,0,0,1-.56,8.32,11.3,11.3,0,0,1-3.86,6,10.09,10.09,0,0,1-6.6,2.45A7.58,7.58,0,0,1,186.15,59a33.68,33.68,0,0,1-.46-7.06V38.09H182.9v15c0,4,.4,7,1.2,8.84a9.61,9.61,0,0,0,3.64,4.38,10.23,10.23,0,0,0,5.72,1.63,12.24,12.24,0,0,0,5.89-1.46,15.78,15.78,0,0,0,5-4.49l.94-1.27v6.45h2.83v-29Z"/><path class="cls-26" d="M47.52,48.94c-.14-1.24-.52-3.09-.73-4.31-3-17.07-15.64-23.43-26.79-29C12.8,12,5.92,8.48,2,2.58A20.12,20.12,0,0,1,.54,0C.62,1,.71,2,.81,3c.06.65.13,1.29.2,1.92.14,1.1.27,2.16.43,3.2s.29,1.92.45,2.83c.23,1.35.48,2.64.76,3.88.37,1.66.78,3.22,1.22,4.7.32,1.11.67,2.17,1,3.18.53,1.48,1.1,2.87,1.69,4.17h0c.48,1.07,1,2.07,1.51,3,4.07,7.37,9.23,11.5,14.41,15,4.76,3.22,10.3,7.66,12.26,14A53.77,53.77,0,0,1,27.2,61l-1.8.35C17,63,8.32,64.74,3.65,71.53c-5.95,8.69-3.53,15-.44,18.81a18.74,18.74,0,0,0,6.22,4.45,3.26,3.26,0,0,0,.38.18h0a44,44,0,0,0,4.24,1.73l.61.2,0-1.22V95.6c-.17-4.5,1.16-13.09,4.15-17.71,3.69-5.66,8.62-7.51,12.59-9A36.89,36.89,0,0,0,35,67.43C46.73,61.86,48.13,54.49,47.52,48.94ZM19.45,16.67c11.43,5.76,23.24,11.71,26.13,28.16.28,1.62.53,3.21.7,4.74a19.4,19.4,0,0,1-1.17,2.76c-.18-1.44-.41-2.92-.67-4.45C41.59,31.74,29.93,25.76,19.63,20.49,12.75,17,6.19,13.62,2.6,7.68,2.48,6.8,2.35,5.9,2.24,5,6.42,10.11,12.8,13.32,19.45,16.67ZM3,10.46c3.9,4.9,9.83,8,16,11.11C29.6,27,40.5,32.55,43.24,48.09c.33,1.89.6,3.69.78,5.44-.39.37-.8.75-1.24,1.1-.16-1.22-.37-2.49-.61-3.79C39.47,36.22,28.59,30.44,19,25.35c-6-3.18-11.7-6.21-15.18-11h0C3.52,13.08,3.27,11.8,3,10.46ZM4.44,17c3.62,3.89,8.69,6.59,14,9.38C28.23,31.64,38.39,37,41,51.05c.28,1.52.51,3,.7,4.43-.44.31-.91.61-1.38.9-.14-.9-.29-1.84-.45-2.78C37.43,40,27.8,35,18.49,30.21,13.8,27.78,9.27,25.45,6,22.09,5.42,20.53,4.91,18.84,4.44,17Zm2.49,7.58c3.16,2.62,7,4.6,11,6.66C27,36,36.34,40.8,38.65,53.81c.19,1.1.36,2.16.49,3.21-.35.19-.71.37-1.08.55C35.69,45.4,26.18,39.78,17.79,34.81a75.89,75.89,0,0,1-8.72-5.69A47.21,47.21,0,0,1,6.93,24.62ZM23.19,43.91A42,42,0,0,1,10.71,31.84c2,1.39,4.22,2.69,6.46,4C25.77,41,34.66,46.21,36.9,57.92l0,.16c-.34.16-.67.3-1,.43C33.82,51.81,28.1,47.23,23.19,43.91ZM4.66,72.22c4.39-6.38,12.82-8.06,21-9.67l1.8-.36A44.35,44.35,0,0,0,40,58c-3,2-6.74,3.11-10.75,4.12-1,.25-2,.49-3,.72-7,1.65-14.89,3.51-19.62,10.39A24.84,24.84,0,0,0,2.14,86.31C.29,82.06,1.14,77.34,4.66,72.22ZM4.15,89.57c-.28-.35-.56-.72-.8-1.07A23.55,23.55,0,0,1,7.62,73.89C12.08,67.4,19.41,65.67,26.5,64c1-.24,2-.48,3-.73,3.75-.94,8-2.3,10.87-4.24l-.7.57a28,28,0,0,1-8.18,3.77c-1.25.39-2.56.72-4,1.08C21.64,65.93,15,67.61,10.11,74.69a29.83,29.83,0,0,0-4.85,16A9.89,9.89,0,0,1,4.15,89.57Zm2.31,2.09a29,29,0,0,1,4.65-16.28c4.6-6.69,11-8.33,16.72-9.76,1.43-.35,2.75-.69,4-1.09A27.35,27.35,0,0,0,41.18,60a24,24,0,0,1-7.44,4.62c-1.22.56-2.65,1-4.15,1.54-4.93,1.65-11.06,3.7-15.82,10.63C10.88,81,9.45,86.43,9.41,93.41A24.35,24.35,0,0,1,6.46,91.66Zm28-25.32A35.23,35.23,0,0,1,31,67.77c-4.13,1.54-9.27,3.46-13.17,9.46-3.17,4.87-4.45,13.32-4.36,17.93-.8-.29-1.77-.68-2.81-1.15,0-7,1.31-12.44,4.14-16.56C19.3,70.85,25.22,68.87,30,67.29a43.3,43.3,0,0,0,4.35-1.64,25.26,25.26,0,0,0,7.37-4.49A27.41,27.41,0,0,1,34.43,66.34Z"/><polygon class="cls-27" points="56.31 33.74 49.04 52.51 54.22 33.73 56.31 33.74"/></svg>